<mxfile host="app.diagrams.net" modified="2021-08-07T11:53:39.070Z" agent="5.0 (Windows NT 10.0; Win64; x64) AppleWebKit/537.36 (KHTML, like Gecko) Chrome/92.0.4515.131 Safari/537.36" etag="OUc72zTEDdKikkdal3Aj" version="14.9.4" type="github">
  <diagram id="rnWuezDNMW71eREbhoyn" name="Page-1">
    <mxGraphModel dx="1888" dy="579" grid="1" gridSize="10" guides="1" tooltips="1" connect="1" arrows="1" fold="1" page="1" pageScale="1" pageWidth="850" pageHeight="1100" math="0" shadow="0">
      <root>
        <mxCell id="0" />
        <mxCell id="1" parent="0" />
        <mxCell id="7_TfvVV6yA6XL2RTCpmT-1" value="" style="rounded=0;whiteSpace=wrap;html=1;sketch=0;" vertex="1" parent="1">
          <mxGeometry x="40" y="180" width="460" height="290" as="geometry" />
        </mxCell>
        <mxCell id="7_TfvVV6yA6XL2RTCpmT-2" style="edgeStyle=orthogonalEdgeStyle;rounded=0;orthogonalLoop=1;jettySize=auto;html=1;entryX=1;entryY=0.5;entryDx=0;entryDy=0;" edge="1" parent="1" source="7_TfvVV6yA6XL2RTCpmT-3" target="7_TfvVV6yA6XL2RTCpmT-13">
          <mxGeometry relative="1" as="geometry" />
        </mxCell>
        <mxCell id="7_TfvVV6yA6XL2RTCpmT-3" value="Parity Node&lt;br&gt;&lt;i&gt;(Ethereum)&lt;/i&gt;" style="rounded=0;whiteSpace=wrap;html=1;" vertex="1" parent="1">
          <mxGeometry x="540" y="280" width="120" height="60" as="geometry" />
        </mxCell>
        <mxCell id="7_TfvVV6yA6XL2RTCpmT-4" value="Discord" style="rounded=0;whiteSpace=wrap;html=1;sketch=1;" vertex="1" parent="1">
          <mxGeometry x="-140" y="350" width="120" height="60" as="geometry" />
        </mxCell>
        <mxCell id="7_TfvVV6yA6XL2RTCpmT-5" value="Actor" style="shape=umlActor;verticalLabelPosition=bottom;verticalAlign=top;html=1;outlineConnect=0;" vertex="1" parent="1">
          <mxGeometry x="-280" y="280" width="30" height="60" as="geometry" />
        </mxCell>
        <mxCell id="7_TfvVV6yA6XL2RTCpmT-6" value="Web UI" style="rounded=0;whiteSpace=wrap;html=1;sketch=1;" vertex="1" parent="1">
          <mxGeometry x="-140" y="280" width="120" height="60" as="geometry" />
        </mxCell>
        <mxCell id="7_TfvVV6yA6XL2RTCpmT-7" value="Web3" style="rounded=0;whiteSpace=wrap;html=1;sketch=1;" vertex="1" parent="1">
          <mxGeometry x="-180" y="295" width="60" height="30" as="geometry" />
        </mxCell>
        <mxCell id="7_TfvVV6yA6XL2RTCpmT-8" value="Wallet" style="rounded=0;whiteSpace=wrap;html=1;sketch=1;" vertex="1" parent="1">
          <mxGeometry x="-140" y="210" width="120" height="60" as="geometry" />
        </mxCell>
        <mxCell id="7_TfvVV6yA6XL2RTCpmT-9" value="Ethereum" style="ellipse;shape=cloud;whiteSpace=wrap;html=1;" vertex="1" parent="1">
          <mxGeometry x="700" y="265" width="120" height="80" as="geometry" />
        </mxCell>
        <mxCell id="7_TfvVV6yA6XL2RTCpmT-10" value="Apocryph DAO" style="rounded=0;whiteSpace=wrap;html=1;" vertex="1" parent="1">
          <mxGeometry x="690" y="170" width="120" height="60" as="geometry" />
        </mxCell>
        <mxCell id="7_TfvVV6yA6XL2RTCpmT-11" value="Apocryph DAO" style="rounded=0;whiteSpace=wrap;html=1;" vertex="1" parent="1">
          <mxGeometry x="700" y="180" width="120" height="60" as="geometry" />
        </mxCell>
        <mxCell id="7_TfvVV6yA6XL2RTCpmT-12" value="DAO&lt;br&gt;&lt;i&gt;Smart Contracts&lt;/i&gt;" style="rounded=0;whiteSpace=wrap;html=1;" vertex="1" parent="1">
          <mxGeometry x="710" y="190" width="120" height="60" as="geometry" />
        </mxCell>
        <mxCell id="7_TfvVV6yA6XL2RTCpmT-13" value="Observer" style="rounded=1;whiteSpace=wrap;html=1;" vertex="1" parent="1">
          <mxGeometry x="250" y="230" width="120" height="60" as="geometry" />
        </mxCell>
        <mxCell id="7_TfvVV6yA6XL2RTCpmT-14" value="Executor" style="rounded=1;whiteSpace=wrap;html=1;" vertex="1" parent="1">
          <mxGeometry x="230" y="357.5" width="120" height="60" as="geometry" />
        </mxCell>
        <mxCell id="7_TfvVV6yA6XL2RTCpmT-15" style="edgeStyle=orthogonalEdgeStyle;rounded=0;orthogonalLoop=1;jettySize=auto;html=1;entryX=1;entryY=0.5;entryDx=0;entryDy=0;endArrow=classic;endFill=1;startArrow=classic;startFill=1;" edge="1" parent="1" source="7_TfvVV6yA6XL2RTCpmT-16" target="7_TfvVV6yA6XL2RTCpmT-4">
          <mxGeometry relative="1" as="geometry" />
        </mxCell>
        <mxCell id="7_TfvVV6yA6XL2RTCpmT-16" value="Discord .NET" style="rounded=0;whiteSpace=wrap;html=1;sketch=0;" vertex="1" parent="1">
          <mxGeometry x="50" y="357.5" width="120" height="45" as="geometry" />
        </mxCell>
      </root>
    </mxGraphModel>
  </diagram>
</mxfile>
